<svg width="62" height="42" viewBox="0 0 62 42" fill="none" xmlns="http://www.w3.org/2000/svg">
<path d="M56.0546 3.96778C56.0238 3.93885 55.9915 3.91149 55.9579 3.88578C54.3678 2.71011 52.5845 1.82141 50.6884 1.25978C48.8221 0.712753 46.8907 0.419429 44.9462 0.387714C38.9917 0.290107 33.1497 2.01495 28.2031 5.33107L25.0889 7.36659C23.9231 7.6347 22.8003 8.06382 21.7529 8.64159C21.1823 8.93228 20.6464 9.28641 20.1552 9.69726C18.559 9.81774 16.9796 10.1034 15.4423 10.5498L14.6894 10.7275C13.11 11.098 11.6335 11.817 10.3681 12.832L9.55363 12.8271H9.50192C7.60879 12.826 5.75652 13.3776 4.17236 14.4141C2.58819 15.4506 1.34104 16.927 0.583919 18.6621C0.487546 18.8823 0.473689 19.1298 0.544886 19.3594C0.616083 19.5889 0.767571 19.7851 0.971619 19.9121L5.38373 22.6533V24.9228L4.69428 28.6289C4.51858 29.5723 4.56671 30.5437 4.83478 31.4651C5.10285 32.3865 5.58339 33.2321 6.23776 33.934C6.89212 34.6358 7.70206 35.1743 8.60243 35.5062C9.5028 35.8381 10.4685 35.954 11.4218 35.8448L11.4687 35.8399C11.124 36.3288 10.9041 36.8946 10.8282 37.488C10.7523 38.0813 10.8226 38.6843 11.0331 39.2442C11.2436 39.8042 11.5879 40.3041 12.0359 40.7006C12.4839 41.097 13.022 41.3778 13.6035 41.5186C13.8836 41.5863 14.1707 41.6204 14.4589 41.6201C15.1822 41.6198 15.8896 41.408 16.4941 41.0108L19.33 39.124C21.8203 37.6933 24.7158 37.1315 27.5605 37.5273L39.1093 39.1582C43.2965 39.7467 47.5601 38.9175 51.2216 36.8027C51.2674 36.7763 51.3109 36.7459 51.3515 36.7119L55.9365 32.9717C57.6782 31.5559 59.0816 29.7689 60.0441 27.7413C61.0067 25.7136 61.504 23.4965 61.4999 21.252V16.7578C61.4933 14.3702 61.008 12.0081 60.0727 9.81127C59.1374 7.61443 57.7711 5.62744 56.0546 3.96778ZM9.50192 14.8272H9.54292L10.7206 14.834H10.7265C10.9664 14.8342 11.1984 14.7479 11.3798 14.5908C12.4622 13.659 13.7532 13.0018 15.1435 12.6748L15.9033 12.4961L16.0279 12.4668L16.0292 12.4698L17.2021 14.0899C17.2309 14.1299 17.2673 14.1639 17.3092 14.1898C17.3512 14.2158 17.3978 14.2332 17.4465 14.2411C17.4952 14.249 17.545 14.2472 17.593 14.2358C17.6409 14.2244 17.6862 14.2037 17.7262 14.1748C17.7661 14.1458 17.8 14.1093 17.8258 14.0673C17.8516 14.0253 17.8689 13.9786 17.8767 13.9299C17.8844 13.8812 17.8825 13.8314 17.8709 13.7835C17.8594 13.7355 17.8385 13.6903 17.8095 13.6504L16.8189 12.2822C17.947 11.9661 19.1058 11.772 20.2753 11.7032C20.442 11.7429 20.6161 11.7387 20.7808 11.6912C20.9454 11.6436 21.0949 11.5542 21.2147 11.4317C21.6447 11.0295 22.1301 10.6911 22.6561 10.4268C23.8325 9.68485 25.1859 9.27082 26.5761 9.22759C27.2982 9.26802 28.0043 9.45685 28.6503 9.78228L29.453 10.1619L29.0722 10.2745C26.8932 10.9235 24.9927 12.2801 23.6708 14.1299C23.5245 14.3344 23.4607 14.5864 23.492 14.8358C23.5233 15.0853 23.6475 15.3137 23.8397 15.4756L26.7117 17.8946C27.004 18.8413 27.1448 19.8283 27.1291 20.8189L26.5165 21.544C25.5688 22.6677 24.4315 23.6166 23.1562 24.3477L22.7363 24.5889C22.5063 24.721 22.3382 24.9391 22.269 25.1951C22.1997 25.4511 22.235 25.7242 22.3671 25.9542C22.4992 26.1841 22.7173 26.3522 22.9733 26.4215C23.2293 26.4907 23.5024 26.4554 23.7324 26.3233L24.1523 26.0821C25.0214 25.5786 25.8362 24.9868 26.5839 24.3161C26.2805 25.4541 25.917 26.5752 25.4951 27.6748C25.3217 28.1251 25.0443 28.528 24.6855 28.8507C24.3267 29.1733 23.8967 29.4065 23.4306 29.5313L22.5605 29.7645V29.2569C22.5605 29.1821 22.5438 29.1082 22.5115 29.0408C22.4792 28.9733 22.4321 28.914 22.3738 28.8671C22.3155 28.8202 22.2475 28.7871 22.1747 28.77C22.1018 28.753 22.0261 28.7525 21.9531 28.7686L19.6581 29.2735C19.5802 29.2907 19.5075 29.3263 19.4462 29.3774C19.3848 29.4284 19.3365 29.4934 19.3054 29.5669C19.2742 29.6404 19.2611 29.7203 19.2671 29.7998C19.2731 29.8794 19.298 29.9564 19.3398 30.0245L19.6513 30.5301C18.3581 30.7914 17.0229 30.7608 15.7431 30.4405L15.7343 30.4375C12.3428 29.6276 9.36942 27.5948 7.38373 24.7285V22.555L11.0732 19.3496C11.2034 19.2366 11.3021 19.0917 11.3598 18.9292C11.4175 18.7667 11.4321 18.5921 11.4023 18.4222C11.3726 18.2524 11.2993 18.0931 11.1898 17.9599C11.0803 17.8267 10.9382 17.7242 10.7773 17.6621L9.18744 17.0489C8.03232 16.6051 6.76501 16.5452 5.57318 16.878L3.77686 17.3831C4.49896 16.58 5.38171 15.9374 6.36794 15.4971C7.35416 15.0568 8.42187 14.8286 9.50192 14.8272ZM27.2812 15.3633C27.222 15.4428 27.1749 15.5307 27.1416 15.624L27.1367 15.6376L25.873 14.5733C26.8849 13.4479 28.1881 12.624 29.6386 12.1924L29.651 12.1887L27.2812 15.3633ZM3.95524 19.4109L6.11418 18.8037C6.88977 18.5861 7.71491 18.6248 8.46672 18.9141L8.50672 18.9297L6.28572 20.8589L3.95524 19.4109ZM11.1952 33.8584C10.5526 33.9319 9.90177 33.8537 9.29494 33.6299C8.6881 33.4061 8.14224 33.0431 7.70123 32.57C7.26022 32.0968 6.93637 31.5268 6.75571 30.9058C6.57506 30.2848 6.54264 29.63 6.66106 28.9942L6.95837 27.3959C9.14226 29.8785 12.0439 31.6209 15.2616 32.3819C15.5035 32.4424 15.7778 32.4968 16.0659 32.5463C15.9176 32.6267 15.7646 32.6958 15.6181 32.7803L14.5768 33.4718L11.1952 33.8584ZM59.4999 21.252C59.5034 23.1998 59.0718 25.1237 58.2367 26.8834C57.4015 28.6431 56.1839 30.194 54.6728 31.4229L50.1503 35.1114C46.891 36.9723 43.1063 37.699 39.3896 37.1778L27.8398 35.5469C24.5317 35.0892 21.1656 35.7502 18.2763 37.4248L15.3905 39.3428C15.1987 39.4708 14.9823 39.5574 14.7552 39.5972C14.5281 39.6371 14.2952 39.6293 14.0712 39.5743C13.8501 39.5221 13.6422 39.4245 13.4608 39.2876C13.2794 39.1508 13.1284 38.9777 13.0175 38.7793C12.8087 38.4114 12.7469 37.9781 12.8446 37.5665C12.9422 37.1549 13.1921 36.7955 13.5439 36.5606L15.4833 35.2706L15.4857 35.2684L16.6698 34.4796C19.9356 32.6048 23.7326 31.8705 27.4618 32.3927L39.0077 34.0255C42.3271 34.4863 45.7051 33.8217 48.6025 32.1378L51.2275 30.4278C51.4372 30.2897 51.5867 30.0773 51.646 29.8334C51.7053 29.5894 51.6699 29.332 51.547 29.1132L51.791 28.8975C51.9287 28.7764 52.0625 28.6534 52.1933 28.5264C52.2648 28.4573 52.3059 28.3626 52.3076 28.2631C52.3092 28.1637 52.2713 28.0676 52.2021 27.9961C52.133 27.9247 52.0383 27.8836 51.9388 27.8819C51.8394 27.8803 51.7433 27.9182 51.6718 27.9874C51.5488 28.1065 51.4228 28.2217 51.2948 28.335L50.9514 28.6386C50.8153 28.5979 50.6719 28.587 50.5312 28.6065C50.3904 28.6261 50.2556 28.6757 50.1357 28.752L47.5556 30.4346C45.0571 31.88 42.1464 32.447 39.288 32.045L31.6701 30.9676C32.2309 28.9146 33.7834 26.7718 35.5917 26.4454C36.706 26.2442 37.6044 26.1534 38.5556 26.0577C39.5038 25.962 40.4833 25.8633 41.6747 25.6485C41.9332 25.6018 42.163 25.4553 42.3143 25.2406C42.4656 25.0258 42.5263 24.7602 42.4833 24.501C42.0846 22.1399 42.5134 19.7134 43.6972 17.6319C43.8124 17.4336 43.9316 17.2422 44.0556 17.0596C44.1613 16.9015 44.2196 16.7164 44.2235 16.5262C44.2275 16.3361 44.177 16.1487 44.078 15.9863C44.0908 15.9706 44.1023 15.9522 44.1152 15.9366C44.1464 15.8985 44.1699 15.8546 44.1843 15.8074C44.1986 15.7603 44.2035 15.7108 44.1987 15.6617C44.1939 15.6126 44.1795 15.565 44.1563 15.5215C44.133 15.478 44.1015 15.4396 44.0634 15.4083C44.0253 15.377 43.9814 15.3535 43.9343 15.3392C43.8871 15.3248 43.8376 15.3199 43.7885 15.3247C43.7395 15.3295 43.6918 15.3439 43.6484 15.3672C43.6049 15.3904 43.5664 15.4219 43.5351 15.46C43.514 15.4857 43.495 15.5158 43.4741 15.5418C43.2754 15.4886 43.0652 15.4984 42.8723 15.5698C42.6794 15.6412 42.5135 15.7707 42.3974 15.9405C42.25 16.1602 42.1074 16.3868 41.9677 16.626C40.7157 18.8093 40.1641 21.3243 40.3877 23.8311C39.6728 23.9346 39.0273 24.0001 38.3554 24.0674C37.4072 24.1631 36.4277 24.2618 35.2363 24.4766C32.477 24.9752 30.3584 27.9055 29.6799 30.6862L27.7422 30.4122C27.1976 30.3348 26.6508 30.2849 26.1033 30.2562C26.6599 29.7367 27.091 29.0974 27.3642 28.3868C28.1047 26.5113 28.6483 24.564 28.9863 22.5762C29.2795 20.8304 29.1639 19.0403 28.6484 17.3467L28.9736 16.4395L33.0517 10.9757C33.1403 10.8569 33.2013 10.72 33.2305 10.5748C33.2597 10.4296 33.2563 10.2798 33.2205 10.1361C33.1847 9.99235 33.1175 9.85837 33.0236 9.74382C32.9297 9.62926 32.8116 9.53699 32.6777 9.47365L29.5059 7.97365C29.1617 7.813 28.8073 7.67541 28.4449 7.5618L29.2969 7.0049C33.9021 3.90898 39.345 2.29766 44.8935 2.38771C46.6605 2.4151 48.4159 2.68017 50.1122 3.17579C51.7652 3.66384 53.3213 4.43397 54.7118 5.45216C56.222 6.92329 57.4233 8.68102 58.2455 10.6223C59.0677 12.5637 59.4941 14.6496 59.4999 16.7578V21.252ZM47.7607 12.6592C47.8058 12.7478 47.8141 12.8507 47.7835 12.9453C47.7529 13.04 47.6861 13.1186 47.5976 13.1641C47.0646 13.4364 46.5536 13.7499 46.0693 14.1016C45.9887 14.1601 45.8882 14.1842 45.7899 14.1687C45.6915 14.1531 45.6034 14.0991 45.5448 14.0186C45.4863 13.938 45.4622 13.8375 45.4777 13.7392C45.4933 13.6408 45.5473 13.5527 45.6278 13.4942C46.144 13.1201 46.6883 12.7864 47.2558 12.4961C47.2996 12.4735 47.3475 12.4597 47.3966 12.4557C47.4458 12.4516 47.4953 12.4573 47.5422 12.4725C47.5891 12.4877 47.6326 12.512 47.6701 12.544C47.7076 12.576 47.7384 12.6152 47.7607 12.6592ZM51.37 11.5694C51.3777 11.618 51.3758 11.6676 51.3643 11.7155C51.3528 11.7633 51.332 11.8084 51.3031 11.8483C51.2742 11.8881 51.2377 11.9218 51.1957 11.9475C51.1537 11.9732 51.1071 11.9904 51.0585 11.9981C50.9159 12.0205 50.5819 12.0781 50.121 12.1992C50.09 12.207 50.0582 12.2109 50.0263 12.211C49.935 12.211 49.8468 12.1778 49.7783 12.1175C49.7097 12.0573 49.6655 11.9741 49.6539 11.8835C49.6422 11.793 49.664 11.7013 49.7152 11.6257C49.7663 11.5501 49.8432 11.4957 49.9316 11.4727C50.4277 11.3438 50.787 11.2822 50.9413 11.2578C50.99 11.2497 51.0398 11.2513 51.0878 11.2626C51.1358 11.2739 51.1811 11.2946 51.2211 11.3236C51.261 11.3526 51.2947 11.3893 51.3203 11.4315C51.3459 11.4737 51.3628 11.5206 51.37 11.5694ZM11.2929 25.2852C13.0328 25.8998 14.8936 26.0929 16.7226 25.8486L17.0956 25.7979C17.2259 25.78 17.3583 25.788 17.4855 25.8214C17.6126 25.8548 17.732 25.9129 17.8366 25.9924C17.9413 26.0719 18.0293 26.1713 18.0955 26.2849C18.1618 26.3984 18.205 26.5239 18.2227 26.6542C18.2404 26.7844 18.2323 26.9169 18.1987 27.044C18.1652 27.1711 18.107 27.2904 18.0273 27.395C17.9477 27.4996 17.8482 27.5874 17.7346 27.6535C17.621 27.7196 17.4954 27.7627 17.3651 27.7803L16.9921 27.8311C14.8467 28.1204 12.6633 27.8937 10.623 27.1699C10.3734 27.0808 10.1694 26.8963 10.0557 26.6569C9.94205 26.4175 9.92807 26.1428 10.0168 25.893C10.1056 25.6433 10.2898 25.439 10.5291 25.3251C10.7684 25.2111 11.0431 25.1967 11.2929 25.2852ZM54.7216 24.4053C54.8101 24.4507 54.877 24.5294 54.9075 24.624C54.9381 24.7187 54.9299 24.8216 54.8847 24.9102C54.6651 25.3396 54.4226 25.7568 54.1581 26.1602C54.124 26.2121 54.0775 26.2547 54.0228 26.2842C53.968 26.3137 53.9068 26.3292 53.8447 26.3291C53.7714 26.3294 53.6997 26.308 53.6386 26.2676C53.5556 26.2129 53.4976 26.1274 53.4775 26.03C53.4574 25.9326 53.4767 25.8312 53.5312 25.7481C53.7807 25.3674 54.0095 24.9736 54.2168 24.5684C54.239 24.5243 54.2697 24.4851 54.3072 24.4531C54.3447 24.421 54.3882 24.3967 54.4351 24.3815C54.4821 24.3663 54.5316 24.3606 54.5808 24.3647C54.6299 24.3688 54.6778 24.3826 54.7216 24.4053ZM18.6874 16.6026C18.6672 16.5577 18.6559 16.5092 18.6544 16.46C18.6528 16.4108 18.661 16.3617 18.6784 16.3157C18.6958 16.2696 18.7222 16.2274 18.7559 16.1915C18.7896 16.1556 18.83 16.1267 18.8749 16.1065C18.9198 16.0862 18.9682 16.075 19.0175 16.0734C19.0667 16.0719 19.1157 16.0801 19.1618 16.0975C19.2079 16.1149 19.25 16.1412 19.2859 16.1749C19.3218 16.2086 19.3507 16.2491 19.371 16.294C19.5556 16.7022 19.7226 17.1221 19.8661 17.541C19.8985 17.6351 19.8921 17.7381 19.8485 17.8274C19.805 17.9168 19.7277 17.9852 19.6337 18.0176C19.5944 18.031 19.5532 18.0379 19.5116 18.0381C19.4336 18.038 19.3575 18.0136 19.294 17.9682C19.2305 17.9229 19.1827 17.8589 19.1572 17.7852C19.0195 17.3838 18.8629 16.9896 18.6874 16.6026Z" fill="#979797"/>
</svg>
